<?xml version="1.0" encoding="UTF-8"?>
<!DOCTYPE svg PUBLIC "-//W3C//DTD SVG 1.1//EN" "http://www.w3.org/Graphics/SVG/1.1/DTD/svg11.dtd">
<!-- Creator: CorelDRAW 2019 (64-Bit) -->
<svg xmlns="http://www.w3.org/2000/svg" xml:space="preserve" width="587px" height="600px" version="1.1" style="shape-rendering:geometricPrecision; text-rendering:geometricPrecision; image-rendering:optimizeQuality; fill-rule:evenodd; clip-rule:evenodd" viewBox="0 0 587 600.43"
    xmlns:xlink="http://www.w3.org/1999/xlink"
    xmlns:xodm="http://www.corel.com/coreldraw/odm/2003">
    <defs>
        <style type="text/css">
            <![CDATA[
    .fil38 {fill:#060115}
    .fil41 {fill:#090012}
    .fil27 {fill:#0A0016}
    .fil36 {fill:#0A001D}
    .fil28 {fill:#0D0016}
    .fil33 {fill:#0D0219}
    .fil19 {fill:#0E0019}
    .fil0 {fill:#0E001C}
    .fil2 {fill:#0F001E}
    .fil12 {fill:#10001C}
    .fil32 {fill:#7687A7}
    .fil21 {fill:#7893B1}
    .fil17 {fill:#8BCACA}
    .fil25 {fill:#8D6E8E}
    .fil14 {fill:#8DD7CF}
    .fil34 {fill:#8DE3D9}
    .fil8 {fill:#91DAD2}
    .fil16 {fill:#92DAD4}
    .fil11 {fill:#92DDD5}
    .fil1 {fill:#93D9D2}
    .fil10 {fill:#94D9D2}
    .fil29 {fill:#94E6D9}
    .fil46 {fill:#9AF5E6}
    .fil30 {fill:#C1E9DB}
    .fil20 {fill:#F0584E}
    .fil45 {fill:#FAFBF6}
    .fil49 {fill:#FB9A84}
    .fil50 {fill:#FBAB56}
    .fil15 {fill:#FCFCFC}
    .fil23 {fill:#FD7A35}
    .fil22 {fill:#FD7B3B}
    .fil37 {fill:#FD896D}
    .fil5 {fill:#FDA848}
    .fil24 {fill:#FDA98D}
    .fil26 {fill:#FDB45B}
    .fil13 {fill:#FDB556}
    .fil9 {fill:#FDBA63}
    .fil6 {fill:#FDDEC4}
    .fil4 {fill:#FDE9D7}
    .fil39 {fill:#FE8538}
    .fil44 {fill:#FE8E76}
    .fil7 {fill:#FE9175}
    .fil42 {fill:#FEB955}
    .fil31 {fill:#FEE1CA}
    .fil3 {fill:#FEE3CB}
    .fil40 {fill:#FEE5CE}
    .fil35 {fill:#FEF4DA}
    .fil18 {fill:#FF8F75}
    .fil48 {fill:#FF937A}
    .fil43 {fill:#FF9573}
    .fil47 {fill:#FF9A77}
   ]]>
        </style>
    </defs>
    <g id="Ebene_x0020_1">
        <metadata id="CorelCorpID_0Corel-Layer"/>
        <g id="_1763656226928">
            <path class="fil0" d="M383.52 540.31c-0.32,-3.45 2.65,-6.56 5.3,-7.17 3.64,-0.84 7.05,2.41 7.56,5.29 1.61,9.01 -12.16,9.33 -12.86,1.88zm-147.96 -40.27l7.46 0.03c0.4,2.38 0.18,27.96 0.2,32.69 0.05,12.78 -3.32,17.28 -15.96,17.33 -4.98,0.02 -45.9,0.49 -48.9,-0.45 -4.07,-1.28 -6.81,-4.43 -8.18,-8.52 -1.11,-2.8 -1.22,-36.58 -0.6,-41.1l65.98 0.02zm81.88 22.78c1.4,1.06 2.25,2.21 3.51,3.42 1.23,1.17 10.14,9.28 10.34,10.47l-29.87 0.07 11.69 -10.61c1.39,-1.31 2.4,-2.72 4.33,-3.35zm-239.22 -75.3l76.41 0.01c0.52,2.97 0.04,29.78 0,35.05 -0.08,11.71 -0.03,23.38 0.03,35.09 0.05,11.34 1.95,23.19 -5.34,29.59 -3.74,3.28 -8.96,2.89 -14.88,2.88l-35.09 0.01c-5.55,0.02 -11.44,0.46 -15.08,-2.7 -7.52,-6.51 -6.05,-18.03 -6.05,-29.4 0,-11.7 -0.01,-23.39 0,-35.09 0.02,-11.67 -0.37,-23.84 0,-35.44zm293.25 55.44c-0.64,-3.17 1.63,-5.72 4.49,-5.91 3.28,-0.23 7.18,-0.02 10.53,-0.02 5.51,0 16.08,-1.85 17.2,3.83 1.6,8.06 -10.43,6.03 -14.94,6.04 -8.13,0.01 -16.17,1.54 -17.28,-3.94zm-128.45 -13.35c-23.98,-0.87 -49.33,-0.58 -73.54,-0.27 -0.61,-5.48 -0.05,-14.47 -0.04,-20.34 0,-5.43 -0.94,-14.97 1.67,-19.15 3.58,-5.72 6.12,-6.54 14.64,-6.45l41.13 0.12c8.3,0 11.96,0.14 14.99,5.95 2.12,4.07 1.26,14.22 1.26,19.53 0.01,5.67 0.58,15.43 -0.11,20.61zm101.22 45.6c-1.45,-0.66 -5.92,-5.7 -7.59,-7.32 -1.16,-1.11 -7.07,-6.2 -7.66,-7.67 -1.05,-0.59 -2.56,-2.04 -3.05,-3.13l-0.58 -1.67 -15.31 -0.56c-1.98,3.57 -19.36,19.14 -24.41,24.6l-8.59 7.99c-0.67,1.22 -1.63,1.95 -3.38,2.5 -2.87,-1.95 -2.39,-3.92 -2.39,-7.75 0.01,-3.46 0.03,-6.93 -0.03,-10.39l0.41 -59.92c1.25,-0.5 2.88,-0.69 4.61,-0.7l80.66 0.13c2.81,0.16 7.76,-0.44 9.82,1.45 -0.64,2.22 -8.21,9.05 -10.09,10.93 -2.55,2.54 -1.67,3.42 -1.64,8.31 0.02,3.65 0.02,7.3 0.03,10.95 0.01,14.08 -0.59,28.84 -0.09,42.82 -0.58,-0.18 -10.04,-9.27 -10.72,-10.57zm50.48 -86.21c-1.42,4.05 -8.85,2.94 -14.65,2.92 -12.98,-0.04 -112.21,0.32 -115.27,-0.12 -4.83,-0.7 -4.49,-8.61 2.82,-8.68 37.97,-0.37 77.31,0.12 115.47,0.1 2.25,0 6.85,-0.27 8.78,0.41 1.87,0.66 3.82,2.63 2.85,5.37zm42.03 -8.67l75.5 0.13c0.01,4.83 -8.28,76.08 -9.07,83.67 -2.69,25.64 -1.05,25.86 -20.48,25.89 -7.8,0 -15.59,0.01 -23.39,0.05 -6.5,0.03 -16.26,1.25 -21.4,-1.63 -3.48,-1.96 -3.64,-6.37 -4.16,-11.33 -0.49,-4.7 -1.14,-9.3 -1.58,-13.99 -1.71,-18.11 -4.47,-36.56 -6.17,-54.81 -0.43,-4.61 -0.96,-9.39 -1.57,-14 -0.5,-3.87 -1.54,-10.27 -1.34,-13.96l13.66 -0.02zm-339.35 -43.91c2.13,-2.64 2.13,-4.73 6.63,-9.14 2.34,-2.3 7.05,-4.71 11.54,-4.7 7.01,0.02 11.88,3.88 15.36,8.8 1.2,1.71 1.81,3.73 2.86,5.39 8.58,-0.39 17.27,-0.25 20.11,9.73 1.39,4.88 0.75,23.13 0.74,29.52 -3.41,0.72 -14.52,0.26 -18.69,0.25 -16.39,-0.04 -44.16,0.94 -57.78,0.03 -0.12,-6.44 -0.76,-23.75 0.68,-28.91 2.49,-8.93 8.09,-11 18.55,-10.97zm385.9 14.93c6.1,-0.18 12.5,0.03 18.64,0.02 13.36,-0.03 18.85,-2.16 18.7,9.72 -0.05,4.16 -1.1,4.49 -5.1,4.54 -6.28,0.07 -12.6,0.03 -18.88,0.03 -24.82,-0.03 -50.46,0.65 -75.17,-0.02 -1.59,-0.05 -4.02,0.29 -5.08,-0.51 -1.67,-1.44 -1.4,-6.9 -0.68,-9.14 2.47,-7.7 14.55,-4.78 25.84,-4.75 13.5,0.04 28.41,0.67 41.73,0.11zm-32.26 -8.73l-5.77 0c-0.39,-6.89 -0.74,-13.59 5.66,-17.08 2.09,-1.15 3.46,-1.41 6.11,-1.51 9.18,-0.34 21.33,-0.5 30.25,0.29 9.89,1.42 9.35,11.48 9.02,17.86l-11.59 0.02c-0.26,-2.45 0.64,-6.4 -1.52,-7.28 -0.3,-0.12 -23.61,-1.31 -25.08,0.88 -0.74,1.95 -0.41,4.51 -0.41,6.71l-6.67 0.11zm-359.25 -37.01c-0.84,2.88 -4.52,4.87 -8.2,3.7 -3.05,-0.97 -5.48,-4.16 -3.86,-8.23 3.11,-7.79 14.26,-2.94 12.06,4.53zm39.38 -3.77c-2.2,7.74 -15.75,4.61 -12.55,-3.75 0.99,-2.59 4.22,-5.58 7.92,-4.21 2.48,0.92 5.67,4.29 4.63,7.96zm359.45 -31.65l12.55 0.06 0.04 21.98 -12.09 -0.04 -11.75 0.1 -6.35 -0.11c-0.86,-1.53 -0.36,-20.19 -0.37,-21.91l17.97 -0.08zm-72.31 30.8c0.69,20.23 2.04,40.44 -16.53,50.86 -6.33,3.56 -10.5,4.11 -18.69,4.02 -29.89,-0.33 -59.9,0.01 -89.8,0 -29.94,0 -59.87,-0.06 -89.8,-0.04 -7.11,0 -13.02,-0.68 -18.37,-3.92 -10.75,-6.49 -15.19,-17.05 -15.63,-29.69 -0.25,-7.09 -0.29,-15.5 -0.1,-22.58l-13.68 -12.29c-6.07,-5.99 -17.32,-16.29 -21.38,-22.11 0.86,-3.28 9.68,-16.69 11.96,-20.22 1.98,-3.08 4.29,-6.34 6.57,-9.28 1.21,-1.57 2.28,-3.04 3.44,-4.47 1.21,-1.48 2.54,-3.26 3.79,-4.52 1.49,-1.51 2.15,-2.79 3.75,-4.17 1.57,-1.35 2.52,-2.32 3.94,-3.99 3.9,-4.59 23.04,-18.73 27.27,-21.4 15.29,-9.67 25.84,-14.97 43.75,-20.78 36.12,-11.7 74.97,-12.56 110.91,-0.05 25.16,8.76 38.41,15.93 57.57,30.73 2.74,2.12 16.3,15.24 18.67,17.93 0.75,0.85 1.16,1.39 1.89,2.26 9.84,11.63 11.42,13.21 20.71,27.59 1.28,1.98 5.24,8 5.98,10.37 -1.14,1.84 -2.63,3.19 -3.95,4.86 -0.76,0.97 -1.42,1.37 -2.24,2.28 -4.55,5.06 -17.86,18.27 -22.91,22.37l-7.12 6.24zm61.75 -90.09l23.15 -0.08 -0.15 49.23 -11.93 -0.01 -18.63 0.01 0.05 -49.08 7.51 -0.07zm-401.46 48.3c0.24,-4.61 8.85,-1.17 15.3,-13.37 1.43,-2.72 1.52,-4.72 2.44,-7.35l2.51 -0.42c2.63,17.26 14.06,17.46 16.42,19.63l-0.05 1.89c-2.89,1.86 -4.79,-0.11 -10.98,6.41 -3.77,3.97 -3.98,6.3 -5.57,12.08 -4.32,0.08 -1.59,-0.11 -3.72,-5.79 -4.14,-11.06 -13.59,-11.43 -16.35,-13.08zm53.26 -43.01c-1.74,7.72 -15.68,5.66 -12.55,-3.8 2.84,-8.6 14.42,-4.49 12.55,3.8zm-52.81 -0.76c-2.45,-8.66 9.53,-12.18 12.18,-4.33 3.15,9.36 -10.3,10.98 -12.18,4.33zm402.14 -31.22l13.76 0.07c1.22,1.35 5.61,13.76 5.9,16.35l-26.05 0.1c0.3,-2.13 5.39,-14.74 6.39,-16.52zm-38.37 -9.15c-1.12,-9.02 11.17,-10.36 12.69,-2.21 0.76,4.09 -1.71,7.12 -5.27,7.53 -3.68,0.43 -7.03,-2.17 -7.42,-5.32zm-263.81 19.81c-0.94,1.27 -7.77,7 -9.74,7.98 -0.1,-5.87 0.28,-12.33 0.29,-18.36 0.03,-16.95 -0.67,-40.4 0.09,-55.84 0.56,-11.3 6.57,-19.68 12.98,-24.24 10.09,-7.18 16.61,-6.49 30.67,-6.39 24.77,0.18 49.55,0.08 74.33,0.07 12.45,-0.01 24.9,-0.05 37.35,-0.05 12.25,0 24.94,0.35 37.14,0l-0.05 8.3c0.29,17.97 -2.39,30.13 10.56,39.19 11.18,7.84 31.05,2.77 45.36,4.81l0.01 50.59c-0.79,-0.29 -4.29,-3.36 -5.28,-4.18 -13.27,-10.95 -27.38,-19.88 -43.78,-27.16 -19.94,-8.86 -42.37,-14.03 -66.97,-14.31 -26.94,-0.3 -47.81,1.15 -71.5,9.79 -9.98,3.64 -19.29,7.81 -27.55,12.82 -7.64,4.63 -11.38,6.86 -18.2,12.37 -1.92,1.55 -3.52,3.15 -5.71,4.61zm261.97 -53.77c-0.16,-2.63 1.81,-4.65 3.4,-5.5 2.16,-1.17 6.29,-0.48 8.89,-0.45l37.73 -0.06c6.06,-0.06 13.48,-1.67 14.56,4.32 1.27,6.99 -6.95,5.7 -12.29,5.71l-37.74 -0.01c-4.71,0 -14.2,1.68 -14.55,-4.01zm-61.33 -10.09c-0.75,-3.31 -0.83,-25.05 -0.33,-29.05 1.4,0.57 6.22,5.88 7.52,7.46l21.83 22.57c-5.72,0.14 -25.41,0.64 -29.02,-0.98zm-226.37 48.16l-40.11 0.25 -0.13 -63.8c3.23,-0.79 17.48,-0.2 21.77,-0.19 7.19,0.02 15.31,0.36 22.4,-0.11 -4.76,15.99 -3.71,12.56 -3.73,29.93 -0.01,11.1 0.33,22.91 -0.2,33.92zm257.52 -79.48c-2.56,-2.12 -5.25,-9.21 -5.62,-14.04 -0.46,-5.86 -0.01,-13.57 0,-19.63 0.01,-13.12 -0.01,-26.25 0.13,-39.41l35.85 -0.02c1.27,-0.55 1.42,-0.47 1.45,-2.81 0.05,-3.81 -0.34,-10.8 0.06,-13.71l30.42 0.3c0.81,2.55 -0.29,11.37 0.18,14.53 0.1,0.69 0.11,0.49 0.26,0.94l27.66 0.72 8.52 0.41c0.79,3.41 0.14,18.92 0.13,23.58 -0.02,7.92 -0.17,15.85 -0.12,23.77 0.09,14.12 0.41,24.74 -14.87,32.14 -5.86,2.83 -14.96,1.97 -21.96,1.97 -8.45,0 -41.48,0.43 -47.05,-0.27 -7.59,-0.96 -11.29,-4.65 -15.04,-8.47zm-205.57 -32.4c-0.55,-4 -0.41,-5.27 1.39,-5.59 1.55,-0.28 5.33,-0.33 6.36,0.49 1.1,0.88 3.17,6.53 -7.75,5.1zm90.25 -9.01c1.66,-0.52 16.26,-0.16 19.32,-0.18 9.49,-0.07 8.03,7.79 3.96,9.23 -1.88,0.67 -16.3,0.35 -19.44,0.37 -10.84,0.06 -6.83,-8.48 -3.84,-9.42zm-182.4 -9.24c-0.01,-10.24 -0.72,-9.64 2.49,-9.64l121.14 0c0.36,13.19 0.11,30.75 0.14,44.36l-14.12 0.09c6.29,-9.52 -0.35,-12.55 -2.86,-14.81 2.11,-3.53 6.04,-7.3 -0.98,-13.52 -4.11,-3.65 -10.85,-2.94 -16.91,-2.95 -4.82,0 -6.92,-0.09 -6.93,5.15l-0.15 25.44c-0.4,0.98 -3.98,1.28 -4.89,1.46 -1.55,0.3 -3,0.73 -4.46,1.2 -3.1,0.99 -5.11,2 -7.79,3.53 -5.46,3.1 -9.13,6.7 -12.4,10.51 -14.15,-0.07 -37.8,0.22 -52.31,-0.35l0.03 -50.47zm228.48 -7.24c2.28,-0.94 4.17,-0.73 6.41,-2.22 10.14,-6.73 8.2,-13.2 9.84,-15.98l1.89 0.18c1.01,2.25 1.02,4.66 2.3,7.11 1.85,3.53 5.71,7.74 9.38,9.49 4.64,2.21 5.2,-0.06 4.5,4.12 -5.18,1.52 -8.3,2.79 -11.53,7.31 -6.53,9.17 -2.14,11.65 -7.12,10.27 -0.36,-6.51 -2.22,-9.57 -5.65,-12.84 -1.52,-1.46 -3.19,-2.66 -5.55,-3.53 -3.02,-1.11 -5.13,-0.27 -4.47,-3.91zm-45.44 -16.58c1.52,-0.46 16.59,-0.24 19.45,-0.23 8.02,0.05 7.43,9.06 2.39,9.82 -4.19,0.64 -15.07,0.27 -19.79,0.19 -8.26,-0.16 -6.87,-8.32 -2.05,-9.78zm-208.73 151.27c-6.2,-3.04 -8.99,-13.26 -9.13,-20.66 -0.19,-9.99 0.01,-20.18 0.01,-30.2l-0.04 -89.8c0.02,-9.76 -0.35,-20.5 0.2,-30.14 0.97,-16.84 15.74,-28.08 34.09,-25.7l-0.05 2.36c-0.26,10.12 2.19,18.92 7.38,24.67 8.3,9.22 20.77,14.48 33.69,7.17 4.02,-2.27 6.02,-4.46 8.64,-7.6 6.24,-7.47 5.72,-14.42 6.34,-25.76 2.61,-0.51 5.74,-0.82 8.48,-0.51 0.32,12.18 -0.05,17.6 6.3,25.88 14.64,19.08 43.47,12.51 48.15,-10.72 0.56,-2.76 0.73,-14.27 1.16,-15.05 2.26,-1.04 13.11,-0.33 16.05,0.4 5,1.24 8.19,3.6 11.44,6.31 7.93,6.59 9.55,11.64 9.53,25.67 -0.03,21.9 0.78,49.42 0.11,70.46 -1.98,0.46 -15.94,0.51 -17.78,-0.02 -0.4,-15.08 -0.07,-30.76 -0.09,-45.91 -0.03,-15.66 2.74,-13.78 -32.91,-13.64 -30.79,0.13 -61.64,-0.11 -92.45,-0.04 -7.11,0.01 -16.11,-0.45 -23,0.13 -7.18,0.62 -5.4,8.25 -5.35,17.7 0.24,46.31 -0.54,92.48 -0.08,138.86 -2.7,0.08 -9.41,-2.22 -10.69,-3.86zm396.82 -165.18c-0.58,-3.01 -0.26,-11.57 -0.22,-15.1 0.06,-4.26 2.11,-8.38 6.96,-7.89 1.94,0.2 3.96,1.83 4.78,2.79 2.29,2.72 1.57,17.04 1.33,20.58 -2.57,0.01 -10.95,0.21 -12.85,-0.38zm-64.72 0.18c-0.55,-2.78 -0.29,-11.56 -0.27,-14.91 0.03,-4.65 1.95,-8.14 6.52,-8.33 4.8,-0.21 6.3,3.97 6.39,8.71 0.08,4.3 0.3,10.45 -0.13,14.73l-12.51 -0.2zm-40.17 -19.1c3.95,-0.03 9.94,-0.94 12.32,1.69 2.64,2.9 0.84,7.5 -2.95,8.11 -2.98,0.48 -22.78,0.13 -27.48,0.12 -9.19,-0.03 -18.37,0 -27.55,0 -9.18,-0.01 -18.36,-0.04 -27.54,0.01 -3.72,0.02 -10.5,0.97 -12.51,-1.53 -1.54,-1.91 -2.03,-7.45 3.39,-8.2l82.32 -0.2zm-176.79 -35.69c5.58,-1.24 9.58,2.04 11.54,5.15 2.75,4.35 2.28,9.16 2.27,14.74 0,8.79 1.85,21.95 -9.41,24.18 -5.29,1.05 -9.51,-1.81 -11.54,-4.76 -2.72,-3.97 -2.02,-9.61 -2.03,-14.89 0,-8.96 -2.26,-21.9 9.17,-24.42zm-64.56 0.19c5.34,-1.55 9.76,1.54 11.88,4.29 2.94,3.82 2.72,8.68 2.65,14.28 -0.15,10.52 1.48,22.53 -8.47,25.06 -5.24,1.33 -9.84,-0.85 -11.99,-3.81 -2.94,-4.06 -2.65,-8.78 -2.67,-14.46 -0.03,-10.68 -1.5,-22.43 8.6,-25.36zm-84.33 125.73l0.06 331.81c0.25,17.29 -0.13,34.63 0.1,51.92 0.1,7.88 1.61,14.96 4.52,21.43 1.23,2.74 5.68,9.85 7.79,11.81 1.47,1.36 2.17,1.85 3.29,3.12 1.52,1.72 5.3,4.32 7.52,5.69 11.63,7.13 18.83,6.77 32.24,6.78 17.11,0.02 34.2,-0.21 51.31,-0.08l327.88 0c9.81,-0.21 20,-4.4 26.74,-9.95 1.5,-1.23 2.75,-2.16 3.84,-3.33 1.96,-2.12 1.25,-0.93 3.45,-3.71 12.78,-16.15 11.7,-31.57 11.34,-54.02l0.03 -379.96c0.07,-16.68 -0.07,-33.49 -0.15,-50.18 -0.08,-15.91 -2.21,-25.99 -12.95,-37.58 -3.93,-4.23 -9.42,-7.69 -14.84,-10.42 -6.62,-3.32 -13.61,-3.91 -21.6,-3.93l-151.68 0.1c-7.22,0.01 -95.93,0.45 -100.6,-0.04 -3.92,-8.99 -2.8,-8.17 -9.6,-15.27 -8.94,-9.33 -24.56,-8.82 -35.78,0.02 -6.73,5.3 -7.85,12.62 -9.48,15.33l-8.67 -0.25c-1.68,-3.3 -3.25,-9.38 -6.6,-12.31 -1.37,-1.21 -1.83,-2.06 -3.08,-2.95 -5.02,-3.57 -9.69,-6.37 -17.86,-6.51 -8.16,-0.14 -13.2,2.69 -17.76,6.62 -3.46,2.98 -8.09,8.53 -9.31,15.3 -16.77,0.6 -24.75,-1.64 -38.03,7.17 -26.36,17.47 -21.96,39.56 -22.05,68.49 -0.05,14.56 -0.68,30.53 -0.07,44.9z"/>
            <path class="fil1" d="M53.7 474.43l-0.06 -331.81 -0.33 1.51c-3.95,2.26 -3.28,2.54 -6.75,7.19 -6.94,9.3 -9.83,14.71 -15.79,24.96l-9.16 18.39c-16.27,41.64 -21.51,68.47 -21.66,114.72 -0.11,34.13 4.69,62.32 15.73,93.87 5.37,15.34 8.27,20.48 14.31,33.6 3.52,7.65 12.86,23.35 18.33,30.69l5.38 6.88z"/>
            <path class="fil1" d="M533.72 504.09l0.3 -30.16c1.91,-1.85 4.48,-5.65 5.94,-8.04 12.94,-21.1 23.43,-38.96 31.59,-63.47 10.11,-30.35 15.37,-59.98 15.4,-93.4 0.01,-17.39 -0.4,-34.49 -3.41,-51.4 -6.26,-35.13 -16.27,-64.52 -35.18,-93.88 -0.91,-1.42 -1.69,-2.93 -2.59,-4.19 -1.01,-1.45 -1.84,-2.68 -2.74,-4.05 -2.03,-3.12 -6.6,-9.77 -8.98,-11.49 1.02,-2.66 0.47,-16.7 -0.3,-19.88l-0.03 379.96z"/>
            <path class="fil2" d="M327.04 272.74c1.57,0.56 5.7,3.81 6.82,4.76 4.45,3.73 2.5,2.36 5.79,5.53 3.43,3.29 7.21,9.12 9.22,13.32 2.69,3.79 5.21,13.76 5.87,19.11 1.76,14.46 -2.01,28.55 -9.58,40.14 -2.57,3.95 -2.73,3.71 -5.51,6.95 -0.99,1.16 -1.85,2.02 -2.98,3.04 -10.03,9.01 -22.21,16.23 -39.22,16.82 -6.99,0.24 -15.63,-0.62 -21.87,-2.83 -4.66,-1.66 -14.05,-6.04 -16.27,-8.85 -0.86,-0.29 -0.49,-0.17 -1.31,-0.75 -5.4,-3.88 -14.67,-14.45 -17.35,-20.17 -8.29,-18.78 -10,-40.34 1.93,-58.69 4.12,-6.34 6.15,-9.27 11.28,-13.62 14.89,-12.64 35.98,-19.15 56.56,-12.78 4.55,1.41 14.46,5.48 16.62,8.02zm41.37 23.14c9.65,3.04 30.2,18.52 38.6,26.57 3.72,3.56 7.3,6.84 10.99,10.59l-8.69 7.49c-0.86,0.76 -1.01,0.93 -1.82,1.57l-11.04 8.96c-8.61,6.5 -34.24,22.61 -42.98,24.49 0.78,-1.52 7.72,-9.03 11.05,-15.3 8.91,-16.76 11.48,-35.57 6.99,-54.36 -0.75,-3.18 -2.72,-7.34 -3.1,-10.01zm-133.22 79.91c-8.45,-2.97 -27.14,-13.84 -34.63,-18.95 -5.65,-3.84 -26.52,-19.53 -29.35,-23.97 2.43,-3.82 19.46,-18.18 22.71,-20.59 4.04,-3 7.94,-6.07 12.6,-8.92 3.61,-2.21 10.31,-6.35 14.34,-7.71 -1.6,7.35 -3.7,7.63 -5.08,21.17 -1.62,15.93 1.28,29.72 8.66,43.32l10.75 15.65zm36.05 -128.11c-0.77,0.83 -7.35,2.74 -9.07,3.44 -10.06,4.06 -14.85,8.02 -22.75,14.59 -2.37,1.98 -6.81,6.94 -8.82,9.68 -1.19,1.63 -1.52,1.57 -3.84,2.57 -12.82,5.49 -27.34,15.38 -38.29,23.96l-6.7 5.76c-5.06,4.73 -14.34,13.54 -18.54,18.81l-5.7 6.75c0.99,2.39 10.03,9.74 12.44,12.31 9.6,10.24 32.3,24.64 44.46,31 20.11,10.52 53.98,20.8 79.99,20.88 37.87,0.13 82.05,-18.37 110.87,-40.19 9.22,-6.98 19.09,-15.05 26.37,-24.07 -2.29,-5.94 -24.22,-26.01 -31.31,-31.61 -12.89,-10.18 -23.76,-17.22 -39.35,-24.02 -2.28,-1 -2.44,-0.68 -3.65,-2.4 -15.13,-21.47 -40.87,-26.65 -41.99,-27.84 -2.1,0.02 -7.51,-1.39 -10.37,-1.76 -18.64,-2.42 -28.98,2.14 -33.75,2.14z"/>
            <path class="fil3" d="M193.88 191.66c3.32,-1.08 37.45,-0.34 43.94,-0.34 10.63,-0.02 107.84,-0.62 110.64,0.28 5.64,1.8 6.25,10.45 -0.14,12.85 -2.78,1.05 -114,0.6 -132.76,0.51 -4.03,-0.01 -19.18,0.44 -21.89,-0.46 -1.24,-0.41 -2.42,-1.49 -3.15,-2.49 -2.29,-3.14 -1.77,-8.67 3.36,-10.35zm-14.87 63.21c2.19,-1.46 3.79,-3.06 5.71,-4.61 6.82,-5.51 10.56,-7.74 18.2,-12.37 8.26,-5.01 17.57,-9.18 27.55,-12.82 23.69,-8.64 44.56,-10.09 71.5,-9.79 24.6,0.28 47.03,5.45 66.97,14.31 16.4,7.28 30.51,16.21 43.78,27.16 0.99,0.82 4.49,3.89 5.28,4.18l-0.01 -50.59c-14.31,-2.04 -34.18,3.03 -45.36,-4.81 -12.95,-9.06 -10.27,-21.22 -10.56,-39.19 -45.19,-0.64 -90.92,-0.03 -136.32,-0.21 -10.97,-0.05 -21.69,-1.24 -30.8,3.43 -6.88,3.53 -13.68,9.36 -15.63,18.3 -1.06,4.9 -1.32,64.64 -0.31,67.01z"/>
            <path class="fil4" d="M271.24 247.68c4.77,0 15.11,-4.56 33.75,-2.14 2.86,0.37 8.27,1.78 10.37,1.76 2.53,-1.35 17.89,2.5 21.13,3.4 30.06,8.31 59.4,24.28 81.25,45.17l12.26 13.03c1.69,2.12 10.37,12.86 10.8,14.53 -0.73,0.86 -1.52,1.52 -2.31,2.5l-6.83 7.24c-7.28,9.02 -17.15,17.09 -26.37,24.07 -28.82,21.82 -73,40.32 -110.87,40.19 -26.01,-0.08 -59.88,-10.36 -79.99,-20.88 -12.16,-6.36 -34.86,-20.76 -44.46,-31 -2.41,-2.57 -11.45,-9.92 -12.44,-12.31 -1.04,-0.67 -8.57,-8.94 -9.15,-10.26 1.1,-2.46 10.97,-14.1 13.93,-17.42 2.7,-3.04 6.52,-6.26 9.26,-9.23 1.34,-1.45 1.98,-1.88 3.35,-3.05 14.85,-12.65 22.38,-18.34 40.28,-28.04 5.43,-2.94 11,-5.62 16.98,-7.92 8.22,-3.17 30.42,-10.31 39.06,-9.64zm-101.85 111.96c1.06,0.63 2.06,1.53 3.02,2.36 1.16,0.99 1.79,1.5 2.91,2.35l12.37 8.78c11.5,7.3 21.28,13.42 35.07,18.91 22.31,8.9 44.4,15.46 70.15,15.64 38.55,0.27 81.75,-15.61 112.75,-37.6l12.65 -9.09 7.12 -6.24c5.05,-4.1 18.36,-17.31 22.91,-22.37 0.82,-0.91 1.48,-1.31 2.24,-2.28 1.32,-1.67 2.81,-3.02 3.95,-4.86 -0.74,-2.37 -4.7,-8.39 -5.98,-10.37 -9.29,-14.38 -10.87,-15.96 -20.71,-27.59 -0.73,-0.87 -1.14,-1.41 -1.89,-2.26 -2.37,-2.69 -15.93,-15.81 -18.67,-17.93 -19.16,-14.8 -32.41,-21.97 -57.57,-30.73 -35.94,-12.51 -74.79,-11.65 -110.91,0.05 -17.91,5.81 -28.46,11.11 -43.75,20.78 -4.23,2.67 -23.37,16.81 -27.27,21.4 -1.42,1.67 -2.37,2.64 -3.94,3.99 -1.6,1.38 -2.26,2.66 -3.75,4.17 -1.25,1.26 -2.58,3.04 -3.79,4.52 -1.16,1.43 -2.23,2.9 -3.44,4.47 -2.28,2.94 -4.59,6.2 -6.57,9.28 -2.28,3.53 -11.1,16.94 -11.96,20.22 4.06,5.82 15.31,16.12 21.38,22.11l13.68 12.29z"/>
            <path class="fil5" d="M112.47 42.35c-4.37,3.39 -10.92,-1.47 -20.26,7.86 -2.54,2.54 -4.06,4.16 -5.71,8.24 -1.57,3.83 -1.8,7.92 -1.83,12.48 -0.37,46.84 0.05,93.84 -0.16,140.74 -0.02,4.47 -0.31,9.11 0.72,13.36 0.82,3.37 3.47,7.84 2.16,11.46 1.28,1.64 7.99,3.94 10.69,3.86 -0.46,-46.38 0.32,-92.55 0.08,-138.86 -0.05,-9.45 -1.83,-17.08 5.35,-17.7 6.89,-0.58 15.89,-0.12 23,-0.13 30.81,-0.07 61.66,0.17 92.45,0.04 35.65,-0.14 32.88,-2.02 32.91,13.64 0.02,15.15 -0.31,30.83 0.09,45.91 1.84,0.53 15.8,0.48 17.78,0.02 0.67,-21.04 -0.14,-48.56 -0.11,-70.46 0.02,-14.03 -1.6,-19.08 -9.53,-25.67 -3.25,-2.71 -6.44,-5.07 -11.44,-6.31 -2.94,-0.73 -13.79,-1.44 -16.05,-0.4 -0.43,0.78 -0.6,12.29 -1.16,15.05 -4.68,23.23 -33.51,29.8 -48.15,10.72 -6.35,-8.28 -5.98,-13.7 -6.3,-25.88 -2.74,-0.31 -5.87,0 -8.48,0.51 -0.62,11.34 -0.1,18.29 -6.34,25.76 -2.62,3.14 -4.62,5.33 -8.64,7.6 -12.92,7.31 -25.39,2.05 -33.69,-7.17 -5.19,-5.75 -7.64,-14.55 -7.38,-24.67z"/>
            <path class="fil6" d="M96.32 515.29c1.63,-0.63 23.1,-0.33 26.8,-0.34 4.38,-0.02 8.93,-0.63 11.86,1.81 2.85,2.38 1.21,7.13 -1.59,8.52 -1.9,0.94 -22.94,0.48 -26.87,0.48 -4.28,0 -9.31,0.8 -11.99,-1.76 -3.05,-2.91 -1.47,-7.46 1.79,-8.71zm-0.49 -25.73c1.71,-0.66 23.49,-0.35 27.29,-0.35 4.12,0 9.28,-0.47 11.86,1.89 2.79,2.54 1.06,7.35 -1.74,8.39 -2.17,0.82 -22.97,0.34 -27.1,0.36 -4.11,0.01 -9.22,0.72 -11.79,-1.71 -2.7,-2.55 -1.47,-7.45 1.48,-8.58zm9.55 -15.4c-2.63,0.01 -7.23,0.45 -9.52,-0.54 -3.89,-1.69 -5.57,-10.56 3.48,-10.44l28.31 0.06c8.65,-0.02 10.54,4.88 8.06,8.55 -2.45,3.62 -10.47,2.4 -15.61,2.39l-14.72 -0.02zm-27.16 -26.64c-0.37,11.6 0.02,23.77 0,35.44 -0.01,11.7 0,23.39 0,35.09 0,11.37 -1.47,22.89 6.05,29.4 3.64,3.16 9.53,2.72 15.08,2.7l35.09 -0.01c5.92,0.01 11.14,0.4 14.88,-2.88 7.29,-6.4 5.39,-18.25 5.34,-29.59 -0.06,-11.71 -0.11,-23.38 -0.03,-35.09 0.04,-5.27 0.52,-32.08 0,-35.05l-76.41 -0.01z"/>
            <path class="fil7" d="M418.31 360.99l-12.65 9.09c-31,21.99 -74.2,37.87 -112.75,37.6 -25.75,-0.18 -47.84,-6.74 -70.15,-15.64 -13.79,-5.49 -23.57,-11.61 -35.07,-18.91l-12.37 -8.78c-1.12,-0.85 -1.75,-1.36 -2.91,-2.35 -0.96,-0.83 -1.96,-1.73 -3.02,-2.36 -0.19,7.08 -0.15,15.49 0.1,22.58 0.44,12.64 4.88,23.2 15.63,29.69 5.35,3.24 11.26,3.92 18.37,3.92 29.93,-0.02 59.86,0.04 89.8,0.04 29.9,0.01 59.91,-0.33 89.8,0 8.19,0.09 12.36,-0.46 18.69,-4.02 18.57,-10.42 17.22,-30.63 16.53,-50.86z"/>
            <path class="fil8" d="M329.2 324.49c-0.65,5.06 -2.16,9.52 -4.27,13.52 -1.99,3.77 -5.1,8.11 -7.69,10.04 -6.63,4.93 -15.34,9.98 -26.87,8.35 -14.92,-2.11 -25,-11.41 -29.43,-23.72 -3.39,-9.41 -2.64,-20.84 2.31,-29.56 6.67,-11.77 19.47,-19.3 34.67,-17.92 18.48,1.68 33.95,18.4 31.28,39.29zm-88.55 25.32c2.68,5.72 11.95,16.29 17.35,20.17 0.82,0.58 0.45,0.46 1.31,0.75l0.37 -0.41c-1.55,-0.62 -8.34,-7.04 -9.13,-8.68 1.47,0.42 1.02,0.21 1.87,1.19 -0.62,-1.98 -0.92,-6.05 -2.04,-9.75l1.82 1.58c0.63,0.77 0.89,1.08 1.59,1.78 19.15,19.29 49.38,22.05 71.3,6.98 2.48,-1.71 6.46,-4.93 8.53,-7.29l4.7 -5.46c0.46,-0.6 0.76,-1.04 1.22,-1.8 0.42,-0.7 0.91,-1.28 1.35,-2.04 0.57,-0.97 1.54,-2.99 2.12,-4.31 4.38,-9.99 5.29,-23.62 3.43,-34.16 -1.05,-5.92 -2.8,-9.38 -5.27,-14.37 -1.37,-2.75 -0.7,-1.82 0.42,-3.97 3.27,-0.03 5.27,4.37 6.27,7.12 2.05,0.24 0.21,0.2 1.01,-0.79 -2.01,-4.2 -5.79,-10.03 -9.22,-13.32 -3.29,-3.17 -1.34,-1.8 -5.79,-5.53 -1.12,-0.95 -5.25,-4.2 -6.82,-4.76 -0.44,1.45 -4.91,-1.34 -7.96,-2.34 -2.97,-0.98 -6.26,-1.73 -9.49,-2.25 -14.34,-2.29 -26.66,-1.51 -39.45,5.26 -5,2.65 -10.68,6.65 -13.41,9.99l-5.29 6.41c-5.37,7.3 -9.06,14.83 -10.65,24.46 -1.57,9.56 0.14,20.95 3.84,29.81 0.88,2.13 2.44,4.78 -3.98,5.73z"/>
            <path class="fil9" d="M449.9 110.9c-4.38,-5.65 -0.75,-13.1 6.4,-13.21 3.58,-0.06 5.39,2.62 6.98,4.36l11.6 11.79c11.13,10.19 13.84,13 5.99,19.78l-12.02 11.37c-6.36,5.76 -8.17,9.96 -14.34,8.46 -2.66,-0.65 -5.32,-2.98 -6.23,-5.08 -2.76,-6.38 3.15,-10.97 7.07,-14.23 -7.73,-0.54 -26.1,1.36 -30.15,-1.55 -5.57,-4.01 -3.94,-11.7 0,-14.26 2.47,-1.6 6.08,-1.35 9.2,-1.41 7.05,-0.12 14.1,-0.11 21.14,-0.03l-5.64 -5.99zm-8.74 -24.31c-0.21,2.06 -3.18,4.26 -4.49,4.69 -2.4,0.79 -22.14,0.56 -26.11,0.73 -0.43,5.14 -0.1,27.9 -0.14,35.14 -0.03,5.42 -0.5,12.53 -0.01,17.75 0.77,8.22 4.71,10.16 5.11,12.53 2.46,0.56 4.2,1.74 7.46,2.27 2.98,0.48 6.42,0.53 9.54,0.54l40.75 -0.05c5.78,-0.01 13.65,0.61 18.42,-1.8 12.55,-6.33 9.58,-18.97 9.53,-31.24 -0.04,-13.52 -0.31,-27.2 -0.03,-40.59l-27.66 -0.72c-0.15,-0.45 -0.16,-0.25 -0.26,-0.94 -0.47,-3.16 0.63,-11.98 -0.18,-14.53l-30.42 -0.3c-0.4,2.91 -0.01,9.9 -0.06,13.71 -0.03,2.34 -0.18,2.26 -1.45,2.81z"/>
            <path class="fil9" d="M481.07 452.56c3.63,-0.76 6.68,1.55 7.87,3.42 1.68,2.62 1.05,7.45 1.04,10.75l-0.01 46.79c0.01,7.11 1.7,16.19 -5.46,17.7 -3.91,0.83 -6.94,-1.3 -8.04,-3.55 -1.39,-2.85 -0.96,-7.16 -0.92,-10.75l0.04 -46.79c-0.06,-7.23 -1.61,-16.1 5.48,-17.57zm-29.82 -0.02c3.58,-0.8 6.9,1.01 8.24,3.08 1.63,2.52 1.05,7.32 1.05,10.74l0.07 46.78c0.03,7.04 1.52,16.66 -5.19,18.01 -3.75,0.76 -6.72,-1.45 -7.98,-3.51 -1.63,-2.69 -1.18,-6.94 -1.19,-10.35l-0.07 -46.78c0,-6.69 -1.78,-16.45 5.07,-17.97zm-13.34 95.9c0.06,0 2.14,1.05 2.75,-2.47 0.22,-1.23 -0.28,-3.75 -0.7,-4.97 9.55,0.52 30.04,0.25 40.86,0.36 13.92,0.13 12.11,2.98 15.74,-25.68 1.54,-12.17 2.8,-24.88 3.97,-37.15 1.2,-12.5 2.86,-25.32 3.82,-37.84 -7.64,0.05 -64.95,0.37 -67.6,-0.36l-13.66 0.02c-0.2,3.69 0.84,10.09 1.34,13.96 0.61,4.61 1.14,9.39 1.57,14 1.7,18.25 4.46,36.7 6.17,54.81 0.44,4.69 1.09,9.29 1.58,13.99 0.52,4.96 0.68,9.37 4.16,11.33z"/>
            <path class="fil10" d="M488.35 575.1l-327.88 0c1.9,0.24 10.6,0.62 11.3,0.99 8.39,4.42 16.36,6.67 25.82,9.73 12.59,4.06 24.95,6.4 38,9.17 25.98,5.5 61.43,6.58 87.93,4.37 26.19,-2.2 72.34,-11.4 96.56,-21.64 0.93,-0.39 3.61,-1.71 4.19,-1.88 2.9,-0.82 13.74,-0.86 16.93,-0.76 15.42,0.5 31.81,0.94 47.15,0.02z"/>
            <path class="fil11" d="M168.05 140.85c-0.67,2.55 0.43,4.8 -1.43,6.41 -1.48,1.28 -4.87,1.7 -6.5,0.23 -2.44,-2.2 -1.54,-10.8 -1.51,-14.68 0.03,-5.22 -0.32,-11.14 -0.03,-16.24 0.3,-5.22 5.14,-4 12.47,-3.91 9.51,0.11 16.97,4.68 16.97,15.25 0,5.13 -2.91,8.62 -5.72,10.5 -3.78,2.52 -9.24,2.28 -14.25,2.44zm-31.57 -2.55c4.15,0.41 12.32,-1.49 14.18,2.41 1,2.1 0.26,5.27 -1.08,6.49 -1.55,1.42 -4.85,1.01 -7.22,1.02 -18.65,0.08 -15.62,1.68 -15.62,-17.3 0,-16.32 -1.64,-18.45 6.18,-18.42 2.82,0.02 14.25,-0.49 15.99,0.56 1.79,1.07 1.97,4.56 1.14,6.71 -0.93,2.45 -3.24,2.18 -6,2.2 -2.6,0.03 -5.18,0.06 -7.81,0.2l-0.02 3.15c11.51,0.74 13.32,-1.92 13.26,4.85 -0.08,7.42 -7.62,3.21 -13.05,4.71l0.05 3.42zm-23.4 -29.26l-0.03 50.47c14.51,0.57 38.16,0.28 52.31,0.35 3.27,-3.81 6.94,-7.41 12.4,-10.51 2.68,-1.53 4.69,-2.54 7.79,-3.53 1.46,-0.47 2.91,-0.9 4.46,-1.2 0.91,-0.18 4.49,-0.48 4.89,-1.46l0.15 -25.44c0.01,-5.24 2.11,-5.15 6.93,-5.15 6.06,0.01 12.8,-0.7 16.91,2.95 7.02,6.22 3.09,9.99 0.98,13.52 2.51,2.26 9.15,5.29 2.86,14.81l14.12 -0.09c-0.03,-13.61 0.22,-31.17 -0.14,-44.36l-121.14 0c-3.21,0 -2.5,-0.6 -2.49,9.64z"/>
            <path class="fil12" d="M276.45 310.52c-0.96,-5.82 3.83,-10.89 8.39,-11.81 13.1,-2.65 17.69,17.88 3.77,19.98 -6.31,0.95 -11.32,-3.03 -12.16,-8.17zm52.75 13.97c2.67,-20.89 -12.8,-37.61 -31.28,-39.29 -15.2,-1.38 -28,6.15 -34.67,17.92 -4.95,8.72 -5.7,20.15 -2.31,29.56 4.43,12.31 14.51,21.61 29.43,23.72 11.53,1.63 20.24,-3.42 26.87,-8.35 2.59,-1.93 5.7,-6.27 7.69,-10.04 2.11,-4 3.62,-8.46 4.27,-13.52z"/>
            <path class="fil13" d="M114.26 393.66c5.62,-0.9 10.45,3.56 11.24,8.02 0.9,5.1 -3.91,10.1 -7.74,11.03 -5.84,1.42 -10.87,-3.35 -11.58,-7.91 -0.85,-5.43 3.61,-10.42 8.08,-11.14zm-16.86 2.76c-10.46,-0.03 -16.06,2.04 -18.55,10.97 -1.44,5.16 -0.8,22.47 -0.68,28.91 13.62,0.91 41.39,-0.07 57.78,-0.03 4.17,0.01 15.28,0.47 18.69,-0.25 0.01,-6.39 0.65,-24.64 -0.74,-29.52 -2.84,-9.98 -11.53,-10.12 -20.11,-9.73 -1.05,-1.66 -1.66,-3.68 -2.86,-5.39 -3.48,-4.92 -8.35,-8.78 -15.36,-8.8 -4.49,-0.01 -9.2,2.4 -11.54,4.7 -4.5,4.41 -4.5,6.5 -6.63,9.14z"/>
            <path class="fil14" d="M211.17 461.8c6.93,-3.1 11.85,9.11 4.02,12.09 -7.43,2.82 -12.17,-8.43 -4.02,-12.09zm-9.57 0.46c2.04,1.62 4.38,3.92 2.88,8.12 -0.9,2.49 -3.46,5.02 -7.3,4.25l-1.52 0.5c-14.7,2.95 -17.27,-13.54 -5.02,-14.42 3.62,-0.26 8.99,-0.77 10.96,1.55zm41.42 27.35c0.69,-5.18 0.12,-14.94 0.11,-20.61 0,-5.31 0.86,-15.46 -1.26,-19.53 -3.03,-5.81 -6.69,-5.95 -14.99,-5.95l-41.13 -0.12c-8.52,-0.09 -11.06,0.73 -14.64,6.45 -2.61,4.18 -1.67,13.72 -1.67,19.15 -0.01,5.87 -0.57,14.86 0.04,20.34 24.21,-0.31 49.56,-0.6 73.54,0.27z"/>
            <path class="fil15" d="M179.01 254.87c-1.01,-2.37 -0.75,-62.11 0.31,-67.01 1.95,-8.94 8.75,-14.77 15.63,-18.3 9.11,-4.67 19.83,-3.48 30.8,-3.43 45.4,0.18 91.13,-0.43 136.32,0.21l0.05 -8.3c-12.2,0.35 -24.89,0 -37.14,0 -12.45,0 -24.9,0.04 -37.35,0.05 -24.78,0.01 -49.56,0.11 -74.33,-0.07 -14.06,-0.1 -20.58,-0.79 -30.67,6.39 -6.41,4.56 -12.42,12.94 -12.98,24.24 -0.76,15.44 -0.06,38.89 -0.09,55.84 -0.01,6.03 -0.39,12.49 -0.29,18.36 1.97,-0.98 8.8,-6.71 9.74,-7.98z"/>
            <path class="fil16" d="M200.26 515.03c1.95,-0.27 2.85,-0.49 4.54,0.57 1.66,1.04 1.14,1.29 2.45,2.6 0.71,-1.62 -0.2,-0.47 1.21,-1.59 2.16,-1.72 3.11,-2.91 5.76,-1.75 7.45,3.3 5.83,11.31 0.39,12.79 -4.36,1.18 -5.8,-1.42 -7.44,-3.47 -1.67,2.43 -2.39,3.82 -6.6,3.71 -1.02,0.4 -10.57,0.53 -12.11,0.26 -2.45,-0.44 -5.44,-4.14 -5.26,-7.42 0.2,-3.54 3.02,-5.79 6.4,-6.29 6.75,-1.01 7.1,0.17 8.67,0.39 1.12,0.16 1.04,-0.52 1.99,0.2zm-30.08 26.09c7.61,-0.14 63.07,0.47 65.05,-0.74 1.55,-1.35 0.81,-24.76 0.81,-29.88 0,-2.64 0.7,-8.46 -0.48,-10.46l-65.98 -0.02c-0.62,4.52 -0.51,38.3 0.6,41.1z"/>
            <path class="fil0" d="M193.88 191.66c-5.13,1.68 -5.65,7.21 -3.36,10.35 0.73,1 1.91,2.08 3.15,2.49 2.71,0.9 17.86,0.45 21.89,0.46 18.76,0.09 129.98,0.54 132.76,-0.51 6.39,-2.4 5.78,-11.05 0.14,-12.85 -2.8,-0.9 -100.01,-0.3 -110.64,-0.28 -6.49,0 -40.62,-0.74 -43.94,0.34z"/>
            <path class="fil3" d="M224.44 360.14c-7.38,-13.6 -10.28,-27.39 -8.66,-43.32 1.38,-13.54 3.48,-13.82 5.08,-21.17 -4.03,1.36 -10.73,5.5 -14.34,7.71 -4.66,2.85 -8.56,5.92 -12.6,8.92 -3.25,2.41 -20.28,16.77 -22.71,20.59 2.83,4.44 23.7,20.13 29.35,23.97 7.49,5.11 26.18,15.98 34.63,18.95l-10.75 -15.65z"/>
            <path class="fil3" d="M407.01 322.45c-8.4,-8.05 -28.95,-23.53 -38.6,-26.57 0.38,2.67 2.35,6.83 3.1,10.01 4.49,18.79 1.92,37.6 -6.99,54.36 -3.33,6.27 -10.27,13.78 -11.05,15.3 8.74,-1.88 34.37,-17.99 42.98,-24.49l11.04 -8.96c0.81,-0.64 0.96,-0.81 1.82,-1.57l8.69 -7.49c-3.69,-3.75 -7.27,-7.03 -10.99,-10.59z"/>
            <path class="fil17" d="M137.93 197.17c-0.96,3.54 -0.41,3.03 5.19,3.06 3.4,0.02 6.45,-0.31 6.84,2.94 0.39,3.23 0.41,5.85 -2.3,6.59 -1.62,0.44 -7.75,0.19 -9.8,0.15l0.04 3.65c4.79,1.28 11.29,-1.49 13.49,2.99 1.12,2.28 0.47,5.14 -1.17,6.37 -1.72,1.29 -5.24,0.71 -7.48,0.71 -18.43,0.04 -15.19,1.05 -15.23,-17.62 -0.02,-14.61 -2.13,-19.19 5.79,-18.95 2.76,0.09 5.54,0.08 8.31,0.08 5.99,0 11.24,-1.3 9.79,6.78 -0.86,4.81 -6.65,2.27 -13.47,3.25zm15.35 42c0.53,-11.01 0.19,-22.82 0.2,-33.92 0.02,-17.37 -1.03,-13.94 3.73,-29.93 -7.09,0.47 -15.21,0.13 -22.4,0.11 -4.29,-0.01 -18.54,-0.6 -21.77,0.19l0.13 63.8 40.11 -0.25z"/>
            <path class="fil18" d="M315.36 247.3c1.12,1.19 26.86,6.37 41.99,27.84 1.21,1.72 1.37,1.4 3.65,2.4 15.59,6.8 26.46,13.84 39.35,24.02 7.09,5.6 29.02,25.67 31.31,31.61l6.83 -7.24c0.79,-0.98 1.58,-1.64 2.31,-2.5 -0.43,-1.67 -9.11,-12.41 -10.8,-14.53l-12.26 -13.03c-21.85,-20.89 -51.19,-36.86 -81.25,-45.17 -3.24,-0.9 -18.6,-4.75 -21.13,-3.4z"/>
            <path class="fil18" d="M157.53 333.24l5.7 -6.75c4.2,-5.27 13.48,-14.08 18.54,-18.81l6.7 -5.76c10.95,-8.58 25.47,-18.47 38.29,-23.96 2.32,-1 2.65,-0.94 3.84,-2.57 2.01,-2.74 6.45,-7.7 8.82,-9.68 7.9,-6.57 12.69,-10.53 22.75,-14.59 1.72,-0.7 8.3,-2.61 9.07,-3.44 -8.64,-0.67 -30.84,6.47 -39.06,9.64 -5.98,2.3 -11.55,4.98 -16.98,7.92 -17.9,9.7 -25.43,15.39 -40.28,28.04 -1.37,1.17 -2.01,1.6 -3.35,3.05 -2.74,2.97 -6.56,6.19 -9.26,9.23 -2.96,3.32 -12.83,14.96 -13.93,17.42 0.58,1.32 8.11,9.59 9.15,10.26z"/>
            <path class="fil19" d="M455.54 116.89c-7.04,-0.08 -14.09,-0.09 -21.14,0.03 -3.12,0.06 -6.73,-0.19 -9.2,1.41 -3.94,2.56 -5.57,10.25 0,14.26 4.05,2.91 22.42,1.01 30.15,1.55 -3.92,3.26 -9.83,7.85 -7.07,14.23 0.91,2.1 3.57,4.43 6.23,5.08 6.17,1.5 7.98,-2.7 14.34,-8.46l12.02 -11.37c7.85,-6.78 5.14,-9.59 -5.99,-19.78l-11.6 -11.79c-1.59,-1.74 -3.4,-4.42 -6.98,-4.36 -7.15,0.11 -10.78,7.56 -6.4,13.21l5.64 5.99z"/>
            <path class="fil20" d="M271.25 531.81l-0.25 -56.4c1.1,0.33 4.49,3.79 5.04,4.43 1.06,1.25 0.67,1.53 1.8,2.74 9.05,9.75 14.09,15.55 23.87,25.16 1.6,1.56 2.63,3.16 4.29,4.65 -1.16,1.84 -5.13,5.57 -6.86,7.36l-20.31 19.67c-2.45,1.98 -1.86,1.13 -1.78,8.03l8.59 -7.99c5.05,-5.46 22.43,-21.03 24.41,-24.6l15.31 0.56 0.58 1.67c0.49,1.09 2,2.54 3.05,3.13 5.04,-4.27 4.77,-4.43 8.83,-8.95l9.52 -9.26c-0.52,7.38 0.02,18.99 -0.07,27.36 -0.07,5.43 0.28,3.66 -3.03,5.84 0.68,1.3 10.14,10.39 10.72,10.57 -0.5,-13.98 0.1,-28.74 0.09,-42.82 -0.01,-3.65 -0.01,-7.3 -0.03,-10.95 -0.03,-4.89 -0.91,-5.77 1.64,-8.31 1.88,-1.88 9.45,-8.71 10.09,-10.93 -2.06,-1.89 -7.01,-1.29 -9.82,-1.45 -0.31,1.23 -0.72,1.12 -1.71,1.88 -0.84,0.64 -0.98,0.92 -1.75,1.65 -1.1,1.04 -2.45,2.05 -3.6,3.18 -1.74,2.45 -6.17,6.5 -8.46,8.53 -5.36,4.76 -11.5,11.22 -16.97,16.22 -2.05,1.86 -5.69,7.39 -7.76,8.66 -3.77,-3.17 -5.39,-5.3 -8.44,-8.72 -1.42,-1.59 -2.85,-2.55 -4.22,-4.08l-8.48 -8.5c-0.96,-0.86 -1.09,-1.19 -1.98,-2.18l-10.28 -9.76c-0.05,-0.05 -0.18,-0.08 -0.21,-0.22 -0.04,-0.15 -0.14,-0.16 -0.22,-0.23 -0.86,-0.67 -6.03,-5.71 -6.58,-6.56 -1.73,0.01 -3.36,0.2 -4.61,0.7l-0.41 59.92z"/>
            <path class="fil21" d="M259.31 370.73c2.22,2.81 11.61,7.19 16.27,8.85 6.24,2.21 14.88,3.07 21.87,2.83 17.01,-0.59 29.19,-7.81 39.22,-16.82 1.13,-1.02 1.99,-1.88 2.98,-3.04 2.78,-3.24 2.94,-3 5.51,-6.95 7.57,-11.59 11.34,-25.68 9.58,-40.14 -0.66,-5.35 -3.18,-15.32 -5.87,-19.11 -0.8,0.99 1.04,1.03 -1.01,0.79 -1,-2.75 -3,-7.15 -6.27,-7.12 -1.12,2.15 -1.79,1.22 -0.42,3.97 2.47,4.99 4.22,8.45 5.27,14.37 1.86,10.54 0.95,24.17 -3.43,34.16 -0.58,1.32 -1.55,3.34 -2.12,4.31 -0.44,0.76 -0.93,1.34 -1.35,2.04 -0.46,0.76 -0.76,1.2 -1.22,1.8l-4.7 5.46c-2.07,2.36 -6.05,5.58 -8.53,7.29 -21.92,15.07 -52.15,12.31 -71.3,-6.98 -0.7,-0.7 -0.96,-1.01 -1.59,-1.78l-1.82 -1.58c1.12,3.7 1.42,7.77 2.04,9.75 -0.85,-0.98 -0.4,-0.77 -1.87,-1.19 0.79,1.64 7.58,8.06 9.13,8.68l-0.37 0.41z"/>
            <path class="fil22" d="M415.52 157.43c-2.55,0.2 -2.39,1.64 -4.72,2.26 3.75,3.82 7.45,7.51 15.04,8.47 5.57,0.7 38.6,0.27 47.05,0.27 7,0 16.1,0.86 21.96,-1.97 15.28,-7.4 14.96,-18.02 14.87,-32.14 -0.05,-7.92 0.1,-15.85 0.12,-23.77 0.01,-4.66 0.66,-20.17 -0.13,-23.58l-8.52 -0.41c-0.28,13.39 -0.01,27.07 0.03,40.59 0.05,12.27 3.02,24.91 -9.53,31.24 -4.77,2.41 -12.64,1.79 -18.42,1.8l-40.75 0.05c-3.12,-0.01 -6.56,-0.06 -9.54,-0.54 -3.26,-0.53 -5,-1.71 -7.46,-2.27z"/>
            <path class="fil23" d="M437.91 548.44c5.14,2.88 14.9,1.66 21.4,1.63 7.8,-0.04 15.59,-0.05 23.39,-0.05 19.43,-0.03 17.79,-0.25 20.48,-25.89 0.79,-7.59 9.08,-78.84 9.07,-83.67l-75.5 -0.13c2.65,0.73 59.96,0.41 67.6,0.36 -0.96,12.52 -2.62,25.34 -3.82,37.84 -1.17,12.27 -2.43,24.98 -3.97,37.15 -3.63,28.66 -1.82,25.81 -15.74,25.68 -10.82,-0.11 -31.31,0.16 -40.86,-0.36 0.42,1.22 0.92,3.74 0.7,4.97 -0.61,3.52 -2.69,2.47 -2.75,2.47z"/>
            <path class="fil15" d="M87.39 236.49c1.31,-3.62 -1.34,-8.09 -2.16,-11.46 -1.03,-4.25 -0.74,-8.89 -0.72,-13.36 0.21,-46.9 -0.21,-93.9 0.16,-140.74 0.03,-4.56 0.26,-8.65 1.83,-12.48 1.65,-4.08 3.17,-5.7 5.71,-8.24 9.34,-9.33 15.89,-4.47 20.26,-7.86l0.05 -2.36c-18.35,-2.38 -33.12,8.86 -34.09,25.7 -0.55,9.64 -0.18,20.38 -0.2,30.14l0.04 89.8c0,10.02 -0.2,20.21 -0.01,30.2 0.14,7.4 2.93,17.62 9.13,20.66z"/>
            <path class="fil24" d="M271.25 531.81c0.06,3.46 0.04,6.93 0.03,10.39 0,3.83 -0.48,5.8 2.39,7.75 1.75,-0.55 2.71,-1.28 3.38,-2.5 -0.08,-6.9 -0.67,-6.05 1.78,-8.03l20.31 -19.67c1.73,-1.79 5.7,-5.52 6.86,-7.36 -1.66,-1.49 -2.69,-3.09 -4.29,-4.65 -9.78,-9.61 -14.82,-15.41 -23.87,-25.16 -1.13,-1.21 -0.74,-1.49 -1.8,-2.74 -0.55,-0.64 -3.94,-4.1 -5.04,-4.43l0.25 56.4z"/>
            <path class="fil25" d="M394.72 449c0.97,-2.74 -0.98,-4.71 -2.85,-5.37 -1.93,-0.68 -6.53,-0.41 -8.78,-0.41 -38.16,0.02 -77.5,-0.47 -115.47,-0.1 -7.31,0.07 -7.65,7.98 -2.82,8.68 3.06,0.44 102.29,0.08 115.27,0.12 5.8,0.02 13.23,1.13 14.65,-2.92z"/>
            <path class="fil26" d="M349.87 478.03c-10.64,-0.67 -23.09,-0.01 -33.94,0.01 -10.6,0.03 -22.67,0.37 -33.08,-0.29 0.08,0.07 0.18,0.08 0.22,0.23 0.03,0.14 0.16,0.17 0.21,0.22l10.28 9.76c0.89,0.99 1.02,1.32 1.98,2.18l8.48 8.5c1.37,1.53 2.8,2.49 4.22,4.08 3.05,3.42 4.67,5.55 8.44,8.72 2.07,-1.27 5.71,-6.8 7.76,-8.66 5.47,-5 11.61,-11.46 16.97,-16.22 2.29,-2.03 6.72,-6.08 8.46,-8.53z"/>
            <path class="fil27" d="M481.07 452.56c-7.09,1.47 -5.54,10.34 -5.48,17.57l-0.04 46.79c-0.04,3.59 -0.47,7.9 0.92,10.75 1.1,2.25 4.13,4.38 8.04,3.55 7.16,-1.51 5.47,-10.59 5.46,-17.7l0.01 -46.79c0.01,-3.3 0.64,-8.13 -1.04,-10.75 -1.19,-1.87 -4.24,-4.18 -7.87,-3.42z"/>
            <path class="fil28" d="M451.25 452.54c-6.85,1.52 -5.07,11.28 -5.07,17.97l0.07 46.78c0.01,3.41 -0.44,7.66 1.19,10.35 1.26,2.06 4.23,4.27 7.98,3.51 6.71,-1.35 5.22,-10.97 5.19,-18.01l-0.07 -46.78c0,-3.42 0.58,-8.22 -1.05,-10.74 -1.34,-2.07 -4.66,-3.88 -8.24,-3.08z"/>
            <path class="fil29" d="M297 52.59c-5.42,0.75 -4.93,6.29 -3.39,8.2 2.01,2.5 8.79,1.55 12.51,1.53 9.18,-0.05 18.36,-0.02 27.54,-0.01 9.18,0 18.36,-0.03 27.55,0 4.7,0.01 24.5,0.36 27.48,-0.12 3.79,-0.61 5.59,-5.21 2.95,-8.11 -2.38,-2.63 -8.37,-1.72 -12.32,-1.69l-82.32 0.2z"/>
            <path class="fil5" d="M421.49 425.64c24.71,0.67 50.35,-0.01 75.17,0.02 6.28,0 12.6,0.04 18.88,-0.03 4,-0.05 5.05,-0.38 5.1,-4.54 0.15,-11.88 -5.34,-9.75 -18.7,-9.72 -6.14,0.01 -12.54,-0.2 -18.64,-0.02 0.09,0.05 0.24,-0.01 0.3,0.12 0.06,0.13 0.23,0.09 0.32,0.11 3,0.72 -2.31,-0.29 0.67,0.16 0.33,0.06 1.13,0.07 1.5,0.08 1.1,0.02 2.22,0.02 3.32,0.03l-2.25 0.12c0.71,0.54 0.93,0.5 2.25,0.51 -2.34,1.34 -0.76,3.21 0.32,3.85 1.45,0.86 3.64,0.77 4.95,1.45 -5.34,0.87 -68.24,0.07 -71.57,0.75 -0.12,0.03 -0.21,0.05 -0.32,0.08l-0.55 0.22c-0.06,0.03 -0.17,0.08 -0.25,0.14l-0.5 6.67z"/>
            <path class="fil30" d="M491.13 320.04l0.12 -48.87c-2.74,-0.12 -9.15,0.57 -11.19,-0.27l-7.51 0.07 -0.05 49.08 18.63 -0.01z"/>
            <path class="fil31" d="M202.53 16.7c-11.43,2.52 -9.17,15.46 -9.17,24.42 0.01,5.28 -0.69,10.92 2.03,14.89 2.03,2.95 6.25,5.81 11.54,4.76 11.26,-2.23 9.41,-15.39 9.41,-24.18 0.01,-5.58 0.48,-10.39 -2.27,-14.74 -1.96,-3.11 -5.96,-6.39 -11.54,-5.15z"/>
            <path class="fil31" d="M137.97 16.89c-10.1,2.93 -8.63,14.68 -8.6,25.36 0.02,5.68 -0.27,10.4 2.67,14.46 2.15,2.96 6.75,5.14 11.99,3.81 9.95,-2.53 8.32,-14.54 8.47,-25.06 0.07,-5.6 0.29,-10.46 -2.65,-14.28 -2.12,-2.75 -6.54,-5.84 -11.88,-4.29z"/>
            <path class="fil32" d="M170.18 541.12c1.37,4.09 4.11,7.24 8.18,8.52 3,0.94 43.92,0.47 48.9,0.45 12.64,-0.05 16.01,-4.55 15.96,-17.33 -0.02,-4.73 0.2,-30.31 -0.2,-32.69l-7.46 -0.03c1.18,2 0.48,7.82 0.48,10.46 0,5.12 0.74,28.53 -0.81,29.88 -1.98,1.21 -57.44,0.6 -65.05,0.74z"/>
            <path class="fil15" d="M240.65 349.81c6.42,-0.95 4.86,-3.6 3.98,-5.73 -3.7,-8.86 -5.41,-20.25 -3.84,-29.81 1.59,-9.63 5.28,-17.16 10.65,-24.46l5.29 -6.41c2.73,-3.34 8.41,-7.34 13.41,-9.99 12.79,-6.77 25.11,-7.55 39.45,-5.26 3.23,0.52 6.52,1.27 9.49,2.25 3.05,1 7.52,3.79 7.96,2.34 -2.16,-2.54 -12.07,-6.61 -16.62,-8.02 -20.58,-6.37 -41.67,0.14 -56.56,12.78 -5.13,4.35 -7.16,7.28 -11.28,13.62 -11.93,18.35 -10.22,39.91 -1.93,58.69z"/>
            <path class="fil19" d="M137.93 197.17c6.82,-0.98 12.61,1.56 13.47,-3.25 1.45,-8.08 -3.8,-6.78 -9.79,-6.78 -2.77,0 -5.55,0.01 -8.31,-0.08 -7.92,-0.24 -5.81,4.34 -5.79,18.95 0.04,18.67 -3.2,17.66 15.23,17.62 2.24,0 5.76,0.58 7.48,-0.71 1.64,-1.23 2.29,-4.09 1.17,-6.37 -2.2,-4.48 -8.7,-1.71 -13.49,-2.99l-0.04 -3.65c2.05,0.04 8.18,0.29 9.8,-0.15 2.71,-0.74 2.69,-3.36 2.3,-6.59 -0.39,-3.25 -3.44,-2.92 -6.84,-2.94 -5.6,-0.03 -6.15,0.48 -5.19,-3.06z"/>
            <path class="fil33" d="M136.48 138.3l-0.05 -3.42c5.43,-1.5 12.97,2.71 13.05,-4.71 0.06,-6.77 -1.75,-4.11 -13.26,-4.85l0.02 -3.15c2.63,-0.14 5.21,-0.17 7.81,-0.2 2.76,-0.02 5.07,0.25 6,-2.2 0.83,-2.15 0.65,-5.64 -1.14,-6.71 -1.74,-1.05 -13.17,-0.54 -15.99,-0.56 -7.82,-0.03 -6.18,2.1 -6.18,18.42 0,18.98 -3.03,17.38 15.62,17.3 2.37,-0.01 5.67,0.4 7.22,-1.02 1.34,-1.22 2.08,-4.39 1.08,-6.49 -1.86,-3.9 -10.03,-2 -14.18,-2.41z"/>
            <path class="fil0" d="M168.01 122.24c5.45,-0.1 10.61,-0.84 10.73,5.29 0.12,5.61 -5.72,5.22 -10.79,5.02l0.06 -10.31zm0.04 18.61c5.01,-0.16 10.47,0.08 14.25,-2.44 2.81,-1.88 5.72,-5.37 5.72,-10.5 0,-10.57 -7.46,-15.14 -16.97,-15.25 -7.33,-0.09 -12.17,-1.31 -12.47,3.91 -0.29,5.1 0.06,11.02 0.03,16.24 -0.03,3.88 -0.93,12.48 1.51,14.68 1.63,1.47 5.02,1.05 6.5,-0.23 1.86,-1.61 0.76,-3.86 1.43,-6.41z"/>
            <path class="fil34" d="M440.98 201.1c0.35,5.69 9.84,4.01 14.55,4.01l37.74 0.01c5.34,-0.01 13.56,1.28 12.29,-5.71 -1.08,-5.99 -8.5,-4.38 -14.56,-4.32l-37.73 0.06c-2.6,-0.03 -6.73,-0.72 -8.89,0.45 -1.59,0.85 -3.56,2.87 -3.4,5.5z"/>
            <path class="fil32" d="M491.13 320.04l11.93 0.01 0.15 -49.23 -23.15 0.08c2.04,0.84 8.45,0.15 11.19,0.27l-0.12 48.87z"/>
            <path class="fil35" d="M421.49 425.64l0.5 -6.67c0.08,-0.06 0.19,-0.11 0.25,-0.14l0.55 -0.22c0.11,-0.03 0.2,-0.05 0.32,-0.08 3.33,-0.68 66.23,0.12 71.57,-0.75 -1.31,-0.68 -3.5,-0.59 -4.95,-1.45 -1.08,-0.64 -2.66,-2.51 -0.32,-3.85 -1.32,-0.01 -1.54,0.03 -2.25,-0.51l2.25 -0.12c-1.1,-0.01 -2.22,-0.01 -3.32,-0.03 -0.37,-0.01 -1.17,-0.02 -1.5,-0.08 -2.98,-0.45 2.33,0.56 -0.67,-0.16 -0.09,-0.02 -0.26,0.02 -0.32,-0.11 -0.06,-0.13 -0.21,-0.07 -0.3,-0.12 -13.32,0.56 -28.23,-0.07 -41.73,-0.11 -11.29,-0.03 -23.37,-2.95 -25.84,4.75 -0.72,2.24 -0.99,7.7 0.68,9.14 1.06,0.8 3.49,0.46 5.08,0.51z"/>
            <path class="fil15" d="M410.8 159.69c2.33,-0.62 2.17,-2.06 4.72,-2.26 -0.4,-2.37 -4.34,-4.31 -5.11,-12.53 -0.49,-5.22 -0.02,-12.33 0.01,-17.75 0.04,-7.24 -0.29,-30 0.14,-35.14 3.97,-0.17 23.71,0.06 26.11,-0.73 1.31,-0.43 4.28,-2.63 4.49,-4.69l-35.85 0.02c-0.14,13.16 -0.12,26.29 -0.13,39.41 -0.01,6.06 -0.46,13.77 0,19.63 0.37,4.83 3.06,11.92 5.62,14.04z"/>
            <path class="fil15" d="M282.85 477.75c10.41,0.66 22.48,0.32 33.08,0.29 10.85,-0.02 23.3,-0.68 33.94,-0.01 1.15,-1.13 2.5,-2.14 3.6,-3.18 0.77,-0.73 0.91,-1.01 1.75,-1.65 0.99,-0.76 1.4,-0.65 1.71,-1.88l-80.66 -0.13c0.55,0.85 5.72,5.89 6.58,6.56z"/>
            <path class="fil36" d="M105.38 474.16l14.72 0.02c5.14,0.01 13.16,1.23 15.61,-2.39 2.48,-3.67 0.59,-8.57 -8.06,-8.55l-28.31 -0.06c-9.05,-0.12 -7.37,8.75 -3.48,10.44 2.29,0.99 6.89,0.55 9.52,0.54z"/>
            <path class="fil37" d="M379.65 191.01c3.61,1.62 23.3,1.12 29.02,0.98l-21.83 -22.57c-1.3,-1.58 -6.12,-6.89 -7.52,-7.46 -0.5,4 -0.42,25.74 0.33,29.05z"/>
            <path class="fil38" d="M96.32 515.29c-3.26,1.25 -4.84,5.8 -1.79,8.71 2.68,2.56 7.71,1.76 11.99,1.76 3.93,0 24.97,0.46 26.87,-0.48 2.8,-1.39 4.44,-6.14 1.59,-8.52 -2.93,-2.44 -7.48,-1.83 -11.86,-1.81 -3.7,0.01 -25.17,-0.29 -26.8,0.34z"/>
            <path class="fil27" d="M95.83 489.56c-2.95,1.13 -4.18,6.03 -1.48,8.58 2.57,2.43 7.68,1.72 11.79,1.71 4.13,-0.02 24.93,0.46 27.1,-0.36 2.8,-1.04 4.53,-5.85 1.74,-8.39 -2.58,-2.36 -7.74,-1.89 -11.86,-1.89 -3.8,0 -25.58,-0.31 -27.29,0.35z"/>
            <path class="fil39" d="M451.04 402.62l6.67 -0.11c0,-2.2 -0.33,-4.76 0.41,-6.71 1.47,-2.19 24.78,-1 25.08,-0.88 2.16,0.88 1.26,4.83 1.52,7.28l11.59 -0.02c0.33,-6.38 0.87,-16.44 -9.02,-17.86 1.41,1.72 4.52,2.37 4.14,5.37 -0.29,2.31 -2.43,0.82 -3.14,0.52 -4.02,-1.71 -18.47,-1.06 -22.95,-1.04 -11.84,0.05 -15.11,0.65 -14.3,13.45z"/>
            <path class="fil5" d="M87.77 317.69c1.46,-1.44 3.86,-2.58 5.36,-3.95 1.75,-1.62 2.93,-3.27 4.71,-4.46 0.88,0.74 0.98,1.18 2.07,2.19 0.78,0.73 1.34,1.22 2.09,2.07 1.7,1.94 2.59,2.03 4.39,3.78 -0.42,0.83 -3.41,3.61 -4.6,5.09 -1.36,1.69 -2.69,3.95 -4.07,5.68 -1.19,-0.88 -3.45,-4.28 -4.62,-5.66 -1.56,-1.82 -4.07,-3.14 -5.33,-4.74zm-9.17 1.51c2.76,1.65 12.21,2.02 16.35,13.08 2.13,5.68 -0.6,5.87 3.72,5.79 1.59,-5.78 1.8,-8.11 5.57,-12.08 6.19,-6.52 8.09,-4.55 10.98,-6.41l0.05 -1.89c-2.36,-2.17 -13.79,-2.37 -16.42,-19.63l-2.51 0.42c-0.92,2.63 -1.01,4.63 -2.44,7.35 -6.45,12.2 -15.06,8.76 -15.3,13.37z"/>
            <path class="fil5" d="M350.65 103c0.9,-1.29 2.81,-2.9 4.03,-4.26l4.26 -4.38c1.39,2.44 6.58,7.29 9.22,8.47 -0.54,0.72 0.01,0.13 -0.67,0.72 -2.77,2.37 -4.33,1.84 -8.54,8.45 -1.04,-0.63 -2.78,-3.66 -3.8,-4.83 -1.35,-1.54 -3.29,-2.47 -4.5,-4.17zm-9.09 -1.2c-0.66,3.64 1.45,2.8 4.47,3.91 2.36,0.87 4.03,2.07 5.55,3.53 3.43,3.27 5.29,6.33 5.65,12.84 4.98,1.38 0.59,-1.1 7.12,-10.27 3.23,-4.52 6.35,-5.79 11.53,-7.31 0.7,-4.18 0.14,-1.91 -4.5,-4.12 -3.67,-1.75 -7.53,-5.96 -9.38,-9.49 -1.28,-2.45 -1.29,-4.86 -2.3,-7.11l-1.89 -0.18c-1.64,2.78 0.3,9.25 -9.84,15.98 -2.24,1.49 -4.13,1.28 -6.41,2.22z"/>
            <path class="fil40" d="M481.19 244.21c-1,1.78 -6.09,14.39 -6.39,16.52l26.05 -0.1c-0.29,-2.59 -4.68,-15 -5.9,-16.35l-13.76 -0.07z"/>
            <path class="fil15" d="M276.45 310.52c0.84,5.14 5.85,9.12 12.16,8.17 13.92,-2.1 9.33,-22.63 -3.77,-19.98 -4.56,0.92 -9.35,5.99 -8.39,11.81z"/>
            <path class="fil7" d="M328.99 520.22c0.59,1.47 6.5,6.56 7.66,7.67 1.67,1.62 6.14,6.66 7.59,7.32 3.31,-2.18 2.96,-0.41 3.03,-5.84 0.09,-8.37 -0.45,-19.98 0.07,-27.36l-9.52 9.26c-4.06,4.52 -3.79,4.68 -8.83,8.95z"/>
            <path class="fil15" d="M451.04 402.62c-0.81,-12.8 2.46,-13.4 14.3,-13.45 4.48,-0.02 18.93,-0.67 22.95,1.04 0.71,0.3 2.85,1.79 3.14,-0.52 0.38,-3 -2.73,-3.65 -4.14,-5.37 -8.92,-0.79 -21.07,-0.63 -30.25,-0.29 -2.65,0.1 -4.02,0.36 -6.11,1.51 -6.4,3.49 -6.05,10.19 -5.66,17.08l5.77 0z"/>
            <path class="fil34" d="M371.47 502.96c1.11,5.48 9.15,3.95 17.28,3.94 4.51,-0.01 16.54,2.02 14.94,-6.04 -1.12,-5.68 -11.69,-3.83 -17.2,-3.83 -3.35,0 -7.25,-0.21 -10.53,0.02 -2.86,0.19 -5.13,2.74 -4.49,5.91z"/>
            <path class="fil41" d="M114.26 393.66c-4.47,0.72 -8.93,5.71 -8.08,11.14 0.71,4.56 5.74,9.33 11.58,7.91 3.83,-0.93 8.64,-5.93 7.74,-11.03 -0.79,-4.46 -5.62,-8.92 -11.24,-8.02z"/>
            <path class="fil42" d="M484.21 71.31c1.9,0.59 10.28,0.39 12.85,0.38 0.24,-3.54 0.96,-17.86 -1.33,-20.58 -0.82,-0.96 -2.84,-2.59 -4.78,-2.79 -4.85,-0.49 -6.9,3.63 -6.96,7.89 -0.04,3.53 -0.36,12.09 0.22,15.1z"/>
            <path class="fil42" d="M419.49 71.49l12.51 0.2c0.43,-4.28 0.21,-10.43 0.13,-14.73 -0.09,-4.74 -1.59,-8.92 -6.39,-8.71 -4.57,0.19 -6.49,3.68 -6.52,8.33 -0.02,3.35 -0.28,12.13 0.27,14.91z"/>
            <path class="fil43" d="M296.12 85.22c-4.82,1.46 -6.21,9.62 2.05,9.78 4.72,0.08 15.6,0.45 19.79,-0.19 5.04,-0.76 5.63,-9.77 -2.39,-9.82 -2.86,-0.01 -17.93,-0.23 -19.45,0.23z"/>
            <polygon class="fil20" points="490.74,333.52 491.12,352.19 503.21,352.23 503.17,330.25 490.62,330.19 "/>
            <path class="fil43" d="M295.48 118.28c-2.99,0.94 -7,9.48 3.84,9.42 3.14,-0.02 17.56,0.3 19.44,-0.37 4.07,-1.44 5.53,-9.3 -3.96,-9.23 -3.06,0.02 -17.66,-0.34 -19.32,0.18z"/>
            <path class="fil7" d="M317.44 522.82c-1.93,0.63 -2.94,2.04 -4.33,3.35l-11.69 10.61 29.87 -0.07c-0.2,-1.19 -9.11,-9.3 -10.34,-10.47 -1.26,-1.21 -2.11,-2.36 -3.51,-3.42z"/>
            <path class="fil44" d="M479.37 352.29l11.75 -0.1 -0.38 -18.67 -11.06 1.37c-1.01,2.35 -0.03,13.76 -0.31,17.4z"/>
            <path class="fil15" d="M479.37 352.29c0.28,-3.64 -0.7,-15.05 0.31,-17.4l11.06 -1.37 -0.12 -3.33 -17.97 0.08c0.01,1.72 -0.49,20.38 0.37,21.91l6.35 0.11z"/>
            <path class="fil15" d="M200.57 527.89c-2.32,-0.61 -4.83,-3.55 -4.95,-6.48 -0.13,-3.51 2.35,-5.29 4.64,-6.38 -0.95,-0.72 -0.87,-0.04 -1.99,-0.2 -1.57,-0.22 -1.92,-1.4 -8.67,-0.39 -3.38,0.5 -6.2,2.75 -6.4,6.29 -0.18,3.28 2.81,6.98 5.26,7.42 1.54,0.27 11.09,0.14 12.11,-0.26z"/>
            <path class="fil15" d="M87.77 317.69c1.26,1.6 3.77,2.92 5.33,4.74 1.17,1.38 3.43,4.78 4.62,5.66 1.38,-1.73 2.71,-3.99 4.07,-5.68 1.19,-1.48 4.18,-4.26 4.6,-5.09 -1.8,-1.75 -2.69,-1.84 -4.39,-3.78 -0.75,-0.85 -1.31,-1.34 -2.09,-2.07 -1.09,-1.01 -1.19,-1.45 -2.07,-2.19 -1.78,1.19 -2.96,2.84 -4.71,4.46 -1.5,1.37 -3.9,2.51 -5.36,3.95z"/>
            <path class="fil15" d="M197.18 474.63c-9.35,-5.51 -1.58,-14.84 4.42,-12.37 -1.97,-2.32 -7.34,-1.81 -10.96,-1.55 -12.25,0.88 -9.68,17.37 5.02,14.42l1.52 -0.5z"/>
            <path class="fil45" d="M350.65 103c1.21,1.7 3.15,2.63 4.5,4.17 1.02,1.17 2.76,4.2 3.8,4.83 4.21,-6.61 5.77,-6.08 8.54,-8.45 0.68,-0.59 0.13,0 0.67,-0.72 -2.64,-1.18 -7.83,-6.03 -9.22,-8.47l-4.26 4.38c-1.22,1.36 -3.13,2.97 -4.03,4.26z"/>
            <path class="fil46" d="M131.86 276.19c1.87,-8.29 -9.71,-12.4 -12.55,-3.8 -3.13,9.46 10.81,11.52 12.55,3.8z"/>
            <path class="fil47" d="M442.82 235.06c0.39,3.15 3.74,5.75 7.42,5.32 3.56,-0.41 6.03,-3.44 5.27,-7.53 -1.52,-8.15 -13.81,-6.81 -12.69,2.21z"/>
            <path class="fil47" d="M79.05 275.43c1.88,6.65 15.33,5.03 12.18,-4.33 -2.65,-7.85 -14.63,-4.33 -12.18,4.33z"/>
            <path class="fil48" d="M131.17 361.84c1.04,-3.67 -2.15,-7.04 -4.63,-7.96 -3.7,-1.37 -6.93,1.62 -7.92,4.21 -3.2,8.36 10.35,11.49 12.55,3.75z"/>
            <path class="fil49" d="M383.52 540.31c0.7,7.45 14.47,7.13 12.86,-1.88 -0.51,-2.88 -3.92,-6.13 -7.56,-5.29 -2.65,0.61 -5.62,3.72 -5.3,7.17z"/>
            <path class="fil47" d="M91.79 365.61c2.2,-7.47 -8.95,-12.32 -12.06,-4.53 -1.62,4.07 0.81,7.26 3.86,8.23 3.68,1.17 7.36,-0.82 8.2,-3.7z"/>
            <path class="fil50" d="M207.25 518.2c0.68,2.53 0.83,3.43 -0.08,5.98 1.64,2.05 3.08,4.65 7.44,3.47 5.44,-1.48 7.06,-9.49 -0.39,-12.79 -2.65,-1.16 -3.6,0.03 -5.76,1.75 -1.41,1.12 -0.5,-0.03 -1.21,1.59z"/>
            <path class="fil28" d="M211.17 461.8c-8.15,3.66 -3.41,14.91 4.02,12.09 7.83,-2.98 2.91,-15.19 -4.02,-12.09z"/>
            <path class="fil27" d="M200.26 515.03c-2.29,1.09 -4.77,2.87 -4.64,6.38 0.12,2.93 2.63,5.87 4.95,6.48 4.21,0.11 4.93,-1.28 6.6,-3.71 0.91,-2.55 0.76,-3.45 0.08,-5.98 -1.31,-1.31 -0.79,-1.56 -2.45,-2.6 -1.69,-1.06 -2.59,-0.84 -4.54,-0.57z"/>
            <path class="fil20" d="M197.18 474.63c3.84,0.77 6.4,-1.76 7.3,-4.25 1.5,-4.2 -0.84,-6.5 -2.88,-8.12 -6,-2.47 -13.77,6.86 -4.42,12.37z"/>
            <path class="fil46" d="M167.95 132.55c5.07,0.2 10.91,0.59 10.79,-5.02 -0.12,-6.13 -5.28,-5.39 -10.73,-5.29l-0.06 10.31z"/>
            <path class="fil46" d="M205.23 127.29c10.92,1.43 8.85,-4.22 7.75,-5.1 -1.03,-0.82 -4.81,-0.77 -6.36,-0.49 -1.8,0.32 -1.94,1.59 -1.39,5.59z"/>
        </g>
    </g>
</svg>
